<?xml version="1.0" encoding="UTF-8"?>
<svg width="97px" height="108px" viewBox="0 0 97 108" version="1.1" xmlns="http://www.w3.org/2000/svg" xmlns:xlink="http://www.w3.org/1999/xlink">
    <title></title>
    <g id="Employees" stroke="none" stroke-width="1" fill="none" fill-rule="evenodd">
        <g id="Employees-/-All-employees-/-Change-fingerprint" transform="translate(-741.000000, -391.000000)" fill="#7CE7AC" fill-rule="nonzero">
            <g id="Popup" transform="translate(590.000000, 277.000000)">
                <g id="Title" transform="translate(20.000000, 20.000000)">
                    <path d="M146.307932,106.523204 C147.086206,107.113523 147.950954,107.155689 148.902178,106.649701 C157.809088,101.674152 167.840171,99.1863772 178.995427,99.1863772 C184.270393,99.1863772 189.307553,99.7766966 194.106907,100.957335 C198.906262,102.137974 203.900185,104.035429 209.088676,106.649701 C209.261626,106.734032 209.694,106.776198 210.385799,106.776198 C211.250547,106.776198 211.920727,106.459955 212.396339,105.82747 C212.871951,105.194985 213.066519,104.478169 212.980044,103.677021 C212.893569,102.875873 212.461195,102.264471 211.682921,101.842814 C206.148531,99.1442116 200.743852,97.1624251 195.468886,95.8974551 C190.19392,94.632485 184.702767,94 178.995427,94 C166.888947,94 155.993116,96.6142715 146.307932,101.842814 C145.356709,102.433134 144.924335,103.213199 145.010809,104.183009 C145.097284,105.152819 145.529658,105.932884 146.307932,106.523204 Z M133.83691,136 C134.699718,136 135.346823,135.659056 135.778227,134.977169 C140.437386,128.499239 146.606458,123.278539 154.285443,119.315068 C161.964428,115.351598 170.355229,113.391172 179.457846,113.43379 C188.560463,113.476408 196.994404,115.415525 204.759669,119.251142 C212.352374,123.171994 218.435165,128.328767 223.008044,134.721461 C223.353166,135.318113 223.892421,135.701674 224.625807,135.872146 C225.359193,136.042618 226.049439,135.936073 226.696545,135.552511 C227.34365,135.16895 227.753484,134.614916 227.926045,133.890411 C228.098607,133.165906 227.969185,132.462709 227.537782,131.780822 C222.447219,124.535769 215.695752,118.761035 207.283381,114.456621 C198.87101,110.152207 189.617402,108 179.522556,108 C169.427711,108 160.152533,110.173516 151.697021,114.520548 C143.500352,118.697108 136.770455,124.535769 131.507331,132.03653 C130.903366,133.059361 130.838655,133.975647 131.313199,134.785388 C131.787743,135.595129 132.62898,136 133.83691,136 Z M194.327988,202 C194.846939,202 195.387512,201.805687 195.949708,201.417062 C196.511905,201.028436 196.857872,200.488678 196.987609,199.797788 C197.117347,199.106898 197.030855,198.437599 196.728134,197.789889 C196.425413,197.14218 195.88484,196.775145 195.106414,196.688784 C191.214286,195.652449 187.905977,194.37862 185.181487,192.867299 C182.456997,191.355977 179.840622,189.348078 177.332362,186.843602 C174.045675,183.561875 171.537415,179.826751 169.80758,175.638231 C168.077745,171.44971 167.212828,167.066877 167.212828,162.489731 C167.212828,159.553449 168.293975,157.048973 170.456268,154.976303 C172.618562,152.903633 175.278183,151.867299 178.435131,151.867299 C181.59208,151.867299 184.273324,152.903633 186.478863,154.976303 C188.684402,157.048973 189.787172,159.553449 189.787172,162.489731 C189.787172,165.426014 190.522352,168.081622 191.992711,170.456556 C193.463071,172.83149 195.452381,174.709847 197.960641,176.091627 C200.468902,177.473407 203.236638,178.164297 206.263848,178.164297 C209.291059,178.164297 212.080418,177.473407 214.631924,176.091627 C217.183431,174.709847 219.215986,172.83149 220.729592,170.456556 C222.243197,168.081622 223,165.426014 223,162.489731 C223,154.889942 220.967444,147.76514 216.902332,141.115324 C212.923712,134.724592 207.60447,129.629279 200.944606,125.829384 C193.938776,121.943128 186.413994,120 178.370262,120 C169.634597,120 161.569242,122.288573 154.174198,126.865719 C146.779155,131.442865 141.351798,137.531332 137.892128,145.131122 C135.297376,150.140074 134,155.969458 134,162.619273 C134,169.269089 135.383868,176.30753 138.151603,183.734597 C138.49757,184.684571 139.167881,185.224329 140.162536,185.35387 C141.157191,185.483412 142.000486,185.224329 142.69242,184.576619 C143.384354,183.92891 143.557337,183.086888 143.21137,182.050553 C141.741011,178.250658 140.70311,174.450764 140.097668,170.650869 C139.751701,168.146393 139.578717,165.426014 139.578717,162.489731 C139.578717,156.617167 140.616618,151.565034 142.69242,147.333333 C145.892614,140.769879 150.714529,135.501843 157.158163,131.529226 C163.601798,127.556609 170.672498,125.5703 178.370262,125.5703 C185.462585,125.5703 192.035957,127.254344 198.090379,130.622433 C204.058309,133.90416 208.772109,138.351764 212.231778,143.965245 C215.864431,149.665087 217.680758,155.839916 217.680758,162.489731 C217.680758,165.426014 216.577988,167.887309 214.372449,169.873618 C212.16691,171.859926 209.464043,172.853081 206.263848,172.853081 C203.063654,172.853081 200.404033,171.859926 198.284985,169.873618 C196.165938,167.887309 195.106414,165.447604 195.106414,162.554502 C195.106414,159.661401 194.349611,156.984202 192.836006,154.522907 C191.3224,152.061611 189.268222,150.118483 186.673469,148.693523 C184.078717,147.268562 181.310982,146.556082 178.370262,146.556082 C175.429543,146.556082 172.683431,147.268562 170.131924,148.693523 C167.580418,150.118483 165.569485,152.061611 164.099125,154.522907 C162.628766,156.984202 161.893586,159.63981 161.893586,162.489731 C161.893586,167.844128 162.888241,172.917852 164.877551,177.7109 C166.866861,182.503949 169.764334,186.800421 173.569971,190.600316 C176.51069,193.536598 179.516278,195.889942 182.586735,197.660348 C185.657191,199.430753 189.311467,200.877304 193.549563,202 L193.549563,202 L194.327988,202 Z M167.351695,201 C168.213277,201 168.902542,200.760717 169.419492,200.28215 C169.936441,199.803583 170.194915,199.172745 170.194915,198.389635 C170.194915,197.606526 169.936441,196.953935 169.419492,196.431862 C166.834746,193.647473 165.111582,191.689699 164.25,190.558541 C162.526836,188.47025 160.889831,185.990403 159.338983,183.119002 C156.15113,177.637236 154.557203,170.676264 154.557203,162.236084 C154.557203,157.885477 155.67726,153.882917 157.917373,150.228407 C160.157486,146.573896 163.173023,143.680742 166.963983,141.548944 C170.754944,139.417147 174.933616,138.351248 179.5,138.351248 C184.066384,138.351248 188.245056,139.417147 192.036017,141.548944 C195.826977,143.680742 198.842514,146.573896 201.082627,150.228407 C203.32274,153.882917 204.442797,157.885477 204.442797,162.236084 C204.442797,163.019194 204.722811,163.650032 205.282839,164.128599 C205.842867,164.607166 206.510593,164.846449 207.286017,164.846449 C208.061441,164.846449 208.707627,164.607166 209.224576,164.128599 C209.741525,163.650032 210,163.019194 210,162.236084 C210,156.928343 208.643008,152.033909 205.929025,147.552783 C203.215042,143.071657 199.51024,139.525912 194.814619,136.915547 C190.118997,134.305182 185.014124,133 179.5,133 C173.985876,133 168.881003,134.305182 164.185381,136.915547 C159.48976,139.525912 155.784958,143.071657 153.070975,147.552783 C150.356992,152.033909 149,156.928343 149,162.236084 C149,171.198337 150.938559,179.029431 154.815678,185.729367 C156.452684,188.861804 158.089689,191.515675 159.726695,193.690979 C161.105226,195.431222 163.086864,197.606526 165.67161,200.216891 C166.188559,200.738964 166.748588,201 167.351695,201 Z M205.213873,191 C207.520231,191 209.698459,190.827778 211.748555,190.483333 C212.517341,190.397222 213.115286,190.009722 213.542389,189.320833 C213.969493,188.631944 214.097624,187.943056 213.926782,187.254167 C213.755941,186.220833 213.115286,185.575 212.004817,185.316667 C211.236031,185.144444 210.082852,185.144444 208.545279,185.316667 L208.545279,185.316667 L205.213873,185.704167 C200.686577,185.704167 196.543674,184.627778 192.785164,182.475 C189.197495,180.494444 186.378613,177.738889 184.328516,174.208333 C182.27842,170.677778 181.253372,166.845833 181.253372,162.7125 C181.253372,161.9375 181.018465,161.291667 180.548651,160.775 C180.078838,160.258333 179.459538,160 178.690751,160 C177.921965,160 177.28131,160.279861 176.768786,160.839583 C176.256262,161.399306 176,162.023611 176,162.7125 C176,167.3625 177.110469,171.754167 179.331407,175.8875 C181.552344,180.020833 184.670199,183.465278 188.684971,186.220833 C193.126846,189.406944 198.63648,191 205.213873,191 Z" id=""></path>
                </g>
            </g>
        </g>
    </g>
</svg>