<svg width="150" height="165" viewBox="0 0 97 108" fill="#9698D6" xmlns="http://www.w3.org/2000/svg">
<path fill-rule="evenodd" clip-rule="evenodd" d="M15.3079 12.5232C16.0862 13.1135 16.951 13.1557 17.9022 12.6497C26.8091 7.67415 36.8402 5.18638 47.9954 5.18638C53.2704 5.18638 58.3076 5.7767 63.1069 6.95734C67.9063 8.13797 72.9002 10.0354 78.0887 12.6497C78.2616 12.734 78.694 12.7762 79.3858 12.7762C80.2505 12.7762 80.9207 12.46 81.3963 11.8275C81.8719 11.195 82.0665 10.4782 81.98 9.67702C81.8936 8.87587 81.4612 8.26447 80.6829 7.84281C75.1485 5.14421 69.7439 3.16243 64.4689 1.89746C59.1939 0.632485 53.7028 0 47.9954 0C35.8889 0 24.9931 2.61427 15.3079 7.84281C14.3567 8.43313 13.9243 9.2132 14.0108 10.183C14.0973 11.1528 14.5297 11.9329 15.3079 12.5232ZM2.83691 42C3.69972 42 4.34682 41.6591 4.77823 40.9772C9.43739 34.4992 15.6065 29.2785 23.2854 25.3151C30.9644 21.3516 39.3552 19.3912 48.4578 19.4338C57.5605 19.4764 65.9944 21.4155 73.7597 25.2511C81.3524 29.172 87.4352 34.3288 92.008 40.7215C92.3532 41.3181 92.8924 41.7017 93.6258 41.8721C94.3592 42.0426 95.0494 41.9361 95.6965 41.5525C96.3437 41.1689 96.7535 40.6149 96.926 39.8904C97.0986 39.1659 96.9692 38.4627 96.5378 37.7808C91.4472 30.5358 84.6957 24.761 76.2834 20.4566C67.871 16.1522 58.6174 14 48.5226 14C38.4277 14 29.1525 16.1735 20.697 20.5205C12.5004 24.6971 5.77046 30.5358 0.507331 38.0365C-0.0966344 39.0594 -0.161345 39.9756 0.313199 40.7854C0.787743 41.5951 1.62898 42 2.83691 42ZM64.9497 107.417C64.3875 107.806 63.8469 108 63.328 108H62.5496C58.3115 106.877 54.6572 105.431 51.5867 103.66C48.5163 101.89 45.5107 99.5366 42.57 96.6003C38.7643 92.8004 35.8669 88.504 33.8775 83.7109C31.8882 78.9178 30.8936 73.8441 30.8936 68.4897C30.8936 65.6398 31.6288 62.9842 33.0991 60.5229C34.5695 58.0616 36.5804 56.1185 39.1319 54.6935C41.6834 53.2686 44.4295 52.5561 47.3703 52.5561C50.311 52.5561 53.0787 53.2686 55.6735 54.6935C58.2682 56.1185 60.3224 58.0616 61.836 60.5229C63.3496 62.9842 64.1064 65.6614 64.1064 68.5545C64.1064 71.4476 65.1659 73.8873 67.285 75.8736C69.404 77.8599 72.0637 78.8531 75.2638 78.8531C78.464 78.8531 81.1669 77.8599 83.3725 75.8736C85.578 73.8873 86.6808 71.426 86.6808 68.4897C86.6808 61.8399 84.8644 55.6651 81.2318 49.9652C77.7721 44.3518 73.0583 39.9042 67.0904 36.6224C61.036 33.2543 54.4626 31.5703 47.3703 31.5703C39.6725 31.5703 32.6018 33.5566 26.1582 37.5292C19.7145 41.5018 14.8926 46.7699 11.6924 53.3333C9.61662 57.565 8.57872 62.6172 8.57872 68.4897C8.57872 71.426 8.7517 74.1464 9.09767 76.6509C9.70311 80.4508 10.741 84.2507 12.2114 88.0506C12.5573 89.0869 12.3844 89.9289 11.6924 90.5766C11.0005 91.2243 10.1572 91.4834 9.16254 91.3539C8.16788 91.2243 7.49757 90.6846 7.1516 89.7346C4.38387 82.3075 3 75.2691 3 68.6193C3 61.9695 4.29738 56.1401 6.89213 51.1311C10.3518 43.5313 15.7792 37.4429 23.1742 32.8657C30.5692 28.2886 38.6346 26 47.3703 26C55.414 26 62.9388 27.9431 69.9446 31.8294C76.6045 35.6293 81.9237 40.7246 85.9023 47.1153C89.9674 53.7651 92 60.8899 92 68.4897C92 71.426 91.2432 74.0816 89.7296 76.4566C88.216 78.8315 86.1834 80.7098 83.6319 82.0916C81.0804 83.4734 78.2911 84.1643 75.2638 84.1643C72.2366 84.1643 69.4689 83.4734 66.9606 82.0916C64.4524 80.7098 62.4631 78.8315 60.9927 76.4566C59.5224 74.0816 58.7872 71.426 58.7872 68.4897C58.7872 65.5535 57.6844 63.049 55.4789 60.9763C53.2733 58.9036 50.5921 57.8673 47.4351 57.8673C44.2782 57.8673 41.6186 58.9036 39.4563 60.9763C37.294 63.049 36.2128 65.5535 36.2128 68.4897C36.2128 73.0669 37.0777 77.4497 38.8076 81.6382C40.5374 85.8268 43.0457 89.5619 46.3324 92.8436C48.8406 95.3481 51.457 97.356 54.1815 98.8673C56.906 100.379 60.2143 101.652 64.1064 102.689C64.8848 102.775 65.4254 103.142 65.7281 103.79C66.0309 104.438 66.1173 105.107 65.9876 105.798C65.8579 106.489 65.5119 107.028 64.9497 107.417ZM36.3517 107C37.2133 107 37.9025 106.761 38.4195 106.282C38.9364 105.804 39.1949 105.173 39.1949 104.39C39.1949 103.607 38.9364 102.954 38.4195 102.432C35.8347 99.6475 34.1116 97.6897 33.25 96.5585C31.5268 94.4702 29.8898 91.9904 28.339 89.119C25.1511 83.6372 23.5572 76.6763 23.5572 68.2361C23.5572 63.8855 24.6773 59.8829 26.9174 56.2284C29.1575 52.5739 32.173 49.6807 35.964 47.5489C39.7549 45.4171 43.9336 44.3512 48.5 44.3512C53.0664 44.3512 57.2451 45.4171 61.036 47.5489C64.827 49.6807 67.8425 52.5739 70.0826 56.2284C72.3227 59.8829 73.4428 63.8855 73.4428 68.2361C73.4428 69.0192 73.7228 69.65 74.2828 70.1286C74.8429 70.6072 75.5106 70.8465 76.286 70.8465C77.0614 70.8465 77.7076 70.6072 78.2246 70.1286C78.7415 69.65 79 69.0192 79 68.2361C79 62.9283 77.643 58.0339 74.929 53.5528C72.215 49.0717 68.5102 45.5259 63.8146 42.9155C59.119 40.3052 54.0141 39 48.5 39C42.9859 39 37.881 40.3052 33.1854 42.9155C28.4898 45.5259 24.785 49.0717 22.071 53.5528C19.357 58.0339 18 62.9283 18 68.2361C18 77.1983 19.9386 85.0294 23.8157 91.7294C25.4527 94.8618 27.0897 97.5157 28.7267 99.691C30.1052 101.431 32.0869 103.607 34.6716 106.217C35.1886 106.739 35.7486 107 36.3517 107ZM80.7486 96.4833C78.6985 96.8278 76.5202 97 74.2139 97C67.6365 97 62.1268 95.4069 57.685 92.2208C53.6702 89.4653 50.5523 86.0208 48.3314 81.8875C46.1105 77.7542 45 73.3625 45 68.7125C45 68.0236 45.2563 67.3993 45.7688 66.8396C46.2813 66.2799 46.922 66 47.6908 66C48.4595 66 49.0788 66.2583 49.5487 66.775C50.0185 67.2917 50.2534 67.9375 50.2534 68.7125C50.2534 72.8458 51.2784 76.6778 53.3285 80.2083C55.3786 83.7389 58.1975 86.4944 61.7852 88.475C65.5437 90.6278 69.6866 91.7042 74.2139 91.7042L77.5453 91.3167C79.0829 91.1444 80.236 91.1444 81.0048 91.3167C82.1153 91.575 82.7559 92.2208 82.9268 93.2542C83.0976 93.9431 82.9695 94.6319 82.5424 95.3208C82.1153 96.0097 81.5173 96.3972 80.7486 96.4833Z" fill="#9698D6" fill-opacity="0.3"/>
</svg>
