<?xml version="1.0" encoding="UTF-8"?>
<svg width="17px" height="12px" viewBox="0 0 17 12" version="1.1" xmlns="http://www.w3.org/2000/svg" xmlns:xlink="http://www.w3.org/1999/xlink">
    <title></title>
    <g id="My-Account" stroke="none" stroke-width="1" fill="none" fill-rule="evenodd">
        <g id="My-account-/-General" transform="translate(-595.000000, -693.000000)" fill="#7E8D9A" fill-rule="nonzero">
            <g id="Content" transform="translate(300.000000, 585.000000)">
                <g id="upload" transform="translate(15.000000, 68.250000)">
                    <path d="M293.918969,51.46875 C294.778344,51.46875 295.508813,51.1679688 296.110375,50.5664062 C296.711938,49.9648438 297.012719,49.234375 297.012719,48.375 C297.012719,47.4941406 296.647485,46.7314453 295.917016,46.0869141 C295.874047,45.1845703 295.530297,44.4111328 294.885766,43.7666016 C294.241235,43.1220703 293.467797,42.7783203 292.565453,42.7353516 C292.243188,41.9619141 291.743676,41.3334961 291.066918,40.8500977 C290.39016,40.3666992 289.622094,40.125 288.762719,40.125 C287.709985,40.125 286.807641,40.4794922 286.055688,41.1884766 C285.303735,41.8974609 284.863305,42.7675781 284.734399,43.7988281 C284.261742,43.8847656 283.853539,44.0727539 283.509789,44.362793 C283.166039,44.652832 282.918969,45.0234375 282.768578,45.4746094 C282.102563,45.6464844 281.560082,46.0009766 281.141137,46.5380859 C280.722192,47.0751953 280.512719,47.6875 280.512719,48.375 C280.512719,49.234375 280.8135,49.9648438 281.415063,50.5664062 C282.016625,51.1679688 282.747094,51.46875 283.606469,51.46875 L283.606469,51.46875 L293.918969,51.46875 Z M293.918969,50.4375 L283.606469,50.4375 C283.026391,50.4375 282.537621,50.2387695 282.14016,49.8413086 C281.7427,49.4438477 281.543969,48.9550781 281.543969,48.375 C281.543969,47.859375 281.705102,47.4135742 282.027367,47.0375977 C282.349633,46.6616211 282.747094,46.4414062 283.21975,46.3769531 L283.21975,46.3769531 L283.574242,46.3125 L283.638696,45.9580078 C283.724633,45.6142578 283.90725,45.3295898 284.186547,45.1040039 C284.465844,44.878418 284.78811,44.765625 285.153344,44.765625 L285.153344,44.765625 L285.668969,44.765625 L285.668969,44.25 C285.668969,43.390625 285.96975,42.6601562 286.571313,42.0585938 C287.172875,41.4570312 287.903344,41.15625 288.762719,41.15625 C289.471703,41.15625 290.09475,41.3603516 290.63186,41.7685547 C291.168969,42.1767578 291.534203,42.703125 291.727563,43.3476562 L291.727563,43.3476562 L291.856469,43.734375 L292.372094,43.734375 C293.081078,43.734375 293.688012,43.9868164 294.192895,44.4916992 C294.697778,44.996582 294.950219,45.6035156 294.950219,46.3125 L294.950219,46.3125 L294.950219,46.5703125 L295.143578,46.7314453 C295.702172,47.1396484 295.981469,47.6875 295.981469,48.375 C295.981469,48.9550781 295.782739,49.4438477 295.385278,49.8413086 C294.987817,50.2387695 294.499047,50.4375 293.918969,50.4375 L293.918969,50.4375 Z M289.278344,49.40625 L289.278344,46.0224609 L290.4385,47.2148438 L291.211938,46.4414062 L289.149438,44.3789062 L288.762719,44.0566406 L288.376,44.3789062 L286.3135,46.4414062 L287.086938,47.2148438 L288.247094,46.0224609 L288.247094,49.40625 L289.278344,49.40625 Z" id=""></path>
                </g>
            </g>
        </g>
    </g>
</svg>